<svg width="40" height="40" viewBox="0 0 40 40" fill="none" xmlns="http://www.w3.org/2000/svg">
<path fill-rule="evenodd" clip-rule="evenodd" d="M39.4093 36.7932H37.1943V35.3586C37.1943 35.0324 36.9298 34.7679 36.6035 34.7679H36.1823V9.17875H38.6079C38.9342 9.17875 39.1987 8.91428 39.1987 8.58804V6.56272C39.1985 6.23656 38.9341 5.97219 38.6079 5.97201H36.1823V3.52408C36.1821 3.19791 35.9177 2.93355 35.5916 2.93336H33.5662C33.2401 2.93355 32.9757 3.19791 32.9755 3.52408V5.97201H30.4236V3.198C31.2916 3.15439 31.966 2.4259 31.9428 1.55714C31.9195 0.688386 31.207 -0.0029228 30.3379 3.37666e-05H23.2493C22.3778 -0.00557113 21.6622 0.687287 21.6395 1.55847C21.6169 2.42966 22.2957 3.15872 23.1662 3.19834V5.97201H22.2366C21.9105 5.97219 21.6461 6.23656 21.6459 6.56272V8.58804C21.6459 8.91428 21.9104 9.17875 22.2366 9.17875H23.1662V24.4287C23.1655 25.8961 24.0491 27.2194 25.4048 27.7811C26.7605 28.3428 28.3211 28.0321 29.3583 26.9941C30.0431 26.3164 30.4269 25.3921 30.4236 24.4287V9.17875H32.9755V34.7679H32.5529C32.2267 34.7681 31.9624 35.0325 31.9622 35.3586V36.7932H15.5386C18.9539 35.0039 21.0823 31.4554 21.053 27.5998C21.0236 23.7443 18.8413 20.2286 15.3992 18.4915V16.5512V16.5398V16.5283V14.2728V14.2613V14.2498V11.9943V11.9828V11.9713V9.7158V9.70432V9.69284V7.43732V7.42584V7.41437V5.48526C16.2697 5.44563 16.9485 4.71657 16.9259 3.84539C16.9032 2.9742 16.1876 2.28134 15.3161 2.28695H6.20219C5.33552 2.28759 4.62684 2.97803 4.60362 3.8444C4.58039 4.71076 5.25106 5.43818 6.11646 5.48526V18.4915C2.6743 20.2287 0.492104 23.7444 0.462806 27.5999C0.433508 31.4555 2.56203 35.0039 5.97738 36.7932H0.590717C0.26455 36.7934 0.000186222 37.0578 0 37.3839V39.4093C0.000186222 39.7354 0.26455 39.9998 0.590717 40H39.4093C39.7355 39.9998 39.9998 39.7354 40 39.4093V37.3839C39.9998 37.0578 39.7355 36.7934 39.4093 36.7932ZM34.157 4.11479H35.0008V5.97133H34.157V4.11479ZM23.2493 1.18147C23.0164 1.18184 22.8277 1.37053 22.8273 1.60341C22.8277 1.83628 23.0164 2.02498 23.2493 2.02535H30.3379C30.5709 2.02535 30.7598 1.83644 30.7598 1.60341C30.7598 1.37038 30.5709 1.18147 30.3379 1.18147H23.2493ZM24.3463 3.20678H29.2408V5.97201H24.3477L24.3463 3.20678ZM38.0172 7.15344H22.8273V7.99732H38.0172V7.15344ZM29.2408 10.2758H27.8062C27.48 10.2758 27.2155 10.5403 27.2155 10.8665C27.2155 11.1928 27.48 11.4572 27.8062 11.4572H29.2422V12.5543H27.8062C27.48 12.5543 27.2155 12.8187 27.2155 13.145C27.2155 13.4712 27.48 13.7357 27.8062 13.7357H29.2422V14.8328H27.8062C27.48 14.8328 27.2155 15.0972 27.2155 15.4235C27.2155 15.7497 27.48 16.0142 27.8062 16.0142H29.2422V17.1112H27.8062C27.48 17.1112 27.2155 17.3757 27.2155 17.7019C27.2155 18.0282 27.48 18.2927 27.8062 18.2927H29.2422V19.3897H27.8062C27.48 19.3897 27.2155 19.6542 27.2155 19.9804C27.2155 20.3067 27.48 20.5711 27.8062 20.5711H29.2422V24.4287C29.2396 25.7792 28.1454 26.8733 26.7949 26.8759C25.444 26.8745 24.3492 25.7796 24.3477 24.4287V9.17875H29.2422L29.2408 10.2758ZM34.9995 9.17875H34.1556V34.7679H34.9995V9.17875ZM33.143 35.9493H36.0121V36.7932H33.143V35.9493ZM6.20219 3.46838C5.96924 3.46857 5.78044 3.65737 5.78025 3.89032C5.78025 4.12335 5.96916 4.31226 6.20219 4.31226H15.3161C15.4669 4.31226 15.6062 4.23184 15.6815 4.10129C15.7569 3.97074 15.7569 3.8099 15.6815 3.67935C15.6062 3.5488 15.4669 3.46838 15.3161 3.46838H6.20219ZM1.64388 27.6793C1.6508 24.1208 3.72275 20.89 6.95392 19.3992C7.16356 19.3028 7.29789 19.0932 7.29789 18.8625V5.4937H14.2177V6.83547H12.7845C12.4582 6.83547 12.1938 7.09994 12.1938 7.42618C12.1938 7.75243 12.4582 8.0169 12.7845 8.0169H14.2177V9.11394H12.7845C12.4582 9.11394 12.1938 9.37842 12.1938 9.70466C12.1938 10.0309 12.4582 10.2954 12.7845 10.2954H14.2177V11.3924H12.7845C12.4582 11.3924 12.1938 11.6569 12.1938 11.9831C12.1938 12.3094 12.4582 12.5739 12.7845 12.5739H14.2177V13.6709H12.7845C12.4582 13.6709 12.1938 13.9354 12.1938 14.2616C12.1938 14.5879 12.4582 14.8523 12.7845 14.8523H14.2177V15.9494H12.7845C12.4582 15.9494 12.1938 16.2138 12.1938 16.5401C12.1938 16.8663 12.4582 17.1308 12.7845 17.1308H14.2177V18.8625C14.2178 19.0933 14.3523 19.3029 14.562 19.3992C18.6786 21.2901 20.7815 25.9175 19.4986 30.2622C18.2157 34.6068 13.9364 37.3497 9.45296 36.7012C4.9695 36.0526 1.64297 32.2094 1.64388 27.6793ZM1.18143 38.8185H38.8186V37.9747H1.18143V38.8185Z" fill="#FFEED9"/>
</svg>
